<?xml version="1.0" encoding="utf-8"?>
<!-- Generator: Adobe Illustrator 22.0.0, SVG Export Plug-In . SVG Version: 6.00 Build 0)  -->
<svg version="1.1" id="Layer_1" xmlns="http://www.w3.org/2000/svg" xmlns:xlink="http://www.w3.org/1999/xlink" x="0px" y="0px"
	 viewBox="0 0 350 118" style="enable-background:new 0 0 350 118;" xml:space="preserve">
<style type="text/css">
	.st0{fill-rule:evenodd;clip-rule:evenodd;fill:#FFFFFF;}
	.st1{fill:#F26722;}
	.st2{fill:#0072AB;}
	.st3{fill:#0179A8;}
	.st4{fill-rule:evenodd;clip-rule:evenodd;fill:#0072AB;}
	.st5{fill-rule:evenodd;clip-rule:evenodd;fill:#F26722;}
</style>
<path class="st0" d="M184.2,86.7c7.4,0,13.4-4,13.4-9c0-4.9-6-9-13.4-9c-7.4,0-13.4,4-13.4,9C170.8,82.7,176.8,86.7,184.2,86.7z"/>
<path class="st1" d="M51.8,93.8h-24c-16,0-24.1-8.6-24.1-25.7c0-17.2,8-25.8,24.1-25.8c16,0,24,8.6,24,25.8v5H14.2
	c1,7,5.6,10.6,13.7,10.6h24V93.8L51.8,93.8z M41.5,63.1c-1-7.1-5.6-10.7-13.6-10.7l0,0c-8.1,0-12.6,3.6-13.7,10.7H41.5z"/>
<path class="st2" d="M102.7,73.6c0,5.3-1.3,9.6-3.8,12.9c-3.6,4.9-9.6,7.3-17.9,7.3c-8.4,0-14.3-2.4-17.9-7.3
	c-2.6-3.4-3.9-7.7-3.9-13h10c0,4,1,6.8,3.1,8.4c1.7,1.3,4.6,1.9,8.7,1.9c4,0,6.9-0.6,8.6-1.9c2.1-1.5,3.1-4.2,3.1-8.3
	c0-2.9-1-5.1-3.1-6.6c-1.7-1.2-5.1-2.6-10.2-4.1c-6.2-1.9-10.6-3.8-13.2-5.7c-4.6-3.4-6.9-8.1-6.9-14.2c0-5.3,1.3-9.6,3.9-13
	c3.6-4.9,9.6-7.3,17.9-7.3c8.4,0,14.3,2.4,17.9,7.3c2.5,3.4,3.8,7.7,3.8,13h-10c0-4-1-6.8-3.1-8.4c-1.7-1.3-4.6-1.9-8.6-1.9
	c-4,0-6.9,0.6-8.7,1.9c-2.1,1.5-3.1,4.3-3.1,8.4c0,2.7,1,4.8,3.1,6.3c1.6,1.2,4.9,2.5,9.9,3.9l0,0c6.3,1.9,10.8,3.8,13.5,5.9
	C100.4,62.5,102.7,67.3,102.7,73.6z"/>
<path class="st3" d="M156.1,68.2c0,17.1-7.7,25.7-23,25.7h-13.3v20.3h-9.7v-46c0-17.2,7.6-25.8,22.9-25.8l0,0
	C148.5,42.4,156.1,51,156.1,68.2L156.1,68.2z M146.5,68.2c0-5.2-0.8-9-2.5-11.3c-2.1-2.9-5.7-4.4-10.9-4.4c-5.1,0-8.7,1.5-10.8,4.4
	c-1.7,2.3-2.5,6.1-2.5,11.3v15.6h13.3c5.1,0,8.8-1.4,10.9-4.3C145.6,77.2,146.5,73.4,146.5,68.2L146.5,68.2z M202.5,78.5
	c0,10.3-6.7,15.4-20,15.4c-7.6,0-13.1-1.8-16.4-5.5c-2.3-2.6-3.4-5.9-3.4-9.9c0-4,1.1-7.3,3.4-9.9c3.3-3.7,8.8-5.5,16.4-5.5l0,0
	c4.5,0,7.5-0.6,9-1.9c0.9-0.7,1.3-1.8,1.3-3.3c0-1.6-0.4-2.7-1.3-3.4c-1.5-1.3-4.5-1.9-9-1.9c-4.5,0-7.4,0.6-8.9,1.9
	c-0.9,0.7-1.3,1.8-1.3,3.4h-9.7c0-4,1.1-7.3,3.4-9.9c3.3-3.7,8.8-5.5,16.4-5.5c13.3,0,20,5.1,20,15.4l0,0V78.5L202.5,78.5z
	 M192.8,78.5v-6.8c-2.8,1-6.3,1.6-10.3,1.6l0,0c-4.5,0-7.4,0.6-8.9,1.8c-0.9,0.7-1.3,1.8-1.3,3.4c0,1.6,0.4,2.7,1.3,3.4
	c1.5,1.3,4.5,1.9,8.9,1.9l0,0c4.5,0,7.5-0.6,9-1.9C192.4,81.2,192.8,80,192.8,78.5L192.8,78.5z M234.5,52.5c-6,0-10.2,0.9-12.4,2.6
	c-1.7,1.3-2.5,3.3-2.5,6v32.8h-9.7V61.1c0-12.5,8.2-18.7,24.6-18.7V52.5L234.5,52.5z M280.5,93.9h-9.7v-5c0-5.2-0.8-9-2.5-11.3
	c-2-2.8-5.6-4.3-10.8-4.3h-7.9v20.7H240V22.2h9.7v40.9h7.3c5.1,0,8.7-1.5,10.8-4.4c1.7-2.3,2.5-6.1,2.5-11.3v-5h9.7v5
	c0,9.4-2.4,16.2-7.1,20.5l0,0c5.1,4.3,7.6,11.3,7.6,21V93.9z"/>
<path class="st1" d="M308.6,83.7c0,4.1-1.1,7-3.4,8.8c-1.6,1.2-3.6,1.8-6,1.8h-11.6V57h11.6c2.4,0,4.5,0.6,6,1.8
	c2.3,1.8,3.4,4.7,3.4,8.8l0,0c0,3.6-0.8,6.2-2.5,8C307.7,77.4,308.6,80.1,308.6,83.7L308.6,83.7z M303.6,67.7L303.6,67.7
	c0-1.9-0.3-3.2-0.8-4c-0.7-0.9-1.9-1.4-3.6-1.4h-6.7V73h6.7c1.7,0,3-0.5,3.6-1.4C303.4,70.9,303.6,69.5,303.6,67.7L303.6,67.7z
	 M303.6,83.7c0-1.9-0.3-3.2-0.8-4c-0.7-0.9-1.9-1.4-3.6-1.4h-6.7V89h6.7c1.7,0,3-0.5,3.6-1.4C303.4,86.9,303.6,85.5,303.6,83.7
	L303.6,83.7z M317.4,62.3h-5V57h5V62.3L317.4,62.3z M312.4,67.5h5v26.7h-5V67.5L312.4,67.5z M345,94.2h-23.6v-2.6
	c0-8.9,3.9-13.3,11.8-13.3c4,0,6.2-1.8,6.7-5.5h-18.5v-5.2H345v2.6c0,8.9-3.9,13.4-11.8,13.4l0,0c-3.9,0-6.2,1.8-6.7,5.5H345V94.2z"
	/>
<path class="st4" d="M153,18.5l0-6c0,0,1-3.8,4.5-4.1c3.4-0.3,15.5,0,15.5,0s4.6,0.5,4.6,4.6c0,4.1,0,16.1,0,16.1s-0.3,3.9-4.1,4.4
	h-4.6v-8.9c0,0,0.2-6.2-5.5-6.2C157.6,18.5,153,18.5,153,18.5z"/>
<path class="st5" d="M167.8,33.7l0,6c0,0-1,3.8-4.5,4.1c-3.4,0.3-15.5,0-15.5,0s-4.6-0.5-4.6-4.6c0-4.1,0-16.1,0-16.1
	s0.3-3.9,4.1-4.4l4.6,0l0,8.9c0,0-0.2,6.2,5.5,6.2C163.2,33.8,167.8,33.7,167.8,33.7z"/>
<path class="st5" d="M138.7,3.8h7.7c1.1,0,2.1,0.9,2.1,2.1v7.7c0,1.1-0.9,2.1-2.1,2.1h-7.7c-1.1,0-2.1-0.9-2.1-2.1V5.8
	C136.6,4.7,137.5,3.8,138.7,3.8z"/>
<path class="st1" d="M127.5,110.8l-1.9-10h1.6l1.2,6.9l1.4-6.9h1.9l1.4,7l1.2-7h1.6l-1.9,10h-1.7l-1.5-7.5l-1.5,7.5H127.5
	L127.5,110.8z M138.1,100.8v3.7c0.5-0.7,1.1-1.1,1.7-1.1c0.3,0,0.7,0.1,0.9,0.2c0.3,0.2,0.5,0.4,0.6,0.6c0.1,0.3,0.2,0.5,0.3,0.8
	c0.1,0.3,0.1,0.8,0.1,1.4v4.3h-1.5V107c0-0.8,0-1.2-0.1-1.4c-0.1-0.2-0.2-0.4-0.3-0.5c-0.1-0.1-0.3-0.2-0.5-0.2
	c-0.2,0-0.5,0.1-0.7,0.2c-0.2,0.2-0.3,0.4-0.4,0.7c-0.1,0.3-0.1,0.8-0.1,1.4v3.6h-1.5v-10H138.1L138.1,100.8z M146.6,108.5l1.5,0.3
	c-0.2,0.7-0.5,1.2-0.9,1.6c-0.4,0.4-0.9,0.6-1.5,0.6c-1,0-1.7-0.4-2.2-1.2c-0.4-0.7-0.6-1.5-0.6-2.5c0-1.2,0.2-2.1,0.7-2.8
	c0.5-0.7,1.1-1,1.9-1c0.8,0,1.5,0.4,2,1.1c0.5,0.7,0.7,1.8,0.7,3.3h-3.7c0,0.6,0.1,1,0.4,1.3c0.2,0.3,0.5,0.5,0.9,0.5
	c0.2,0,0.4-0.1,0.6-0.2C146.4,109.1,146.5,108.9,146.6,108.5L146.6,108.5z M146.7,106.6c0-0.6-0.1-1-0.3-1.3
	c-0.2-0.3-0.5-0.4-0.8-0.4c-0.3,0-0.6,0.2-0.8,0.5c-0.2,0.3-0.3,0.7-0.3,1.2H146.7L146.7,106.6z M150.8,110.8h-1.5v-7.3h1.4v1
	c0.2-0.5,0.5-0.8,0.6-1c0.2-0.2,0.4-0.2,0.6-0.2c0.3,0,0.7,0.1,1,0.4l-0.5,1.7c-0.3-0.2-0.5-0.3-0.7-0.3c-0.2,0-0.4,0.1-0.5,0.2
	c-0.1,0.1-0.3,0.4-0.3,0.8c-0.1,0.4-0.1,1.2-0.1,2.4V110.8L150.8,110.8z M156.8,108.5l1.5,0.3c-0.2,0.7-0.5,1.2-0.9,1.6
	c-0.4,0.4-0.9,0.6-1.5,0.6c-1,0-1.7-0.4-2.2-1.2c-0.4-0.7-0.6-1.5-0.6-2.5c0-1.2,0.2-2.1,0.7-2.8c0.5-0.7,1.1-1,1.9-1
	c0.8,0,1.5,0.4,2,1.1c0.5,0.7,0.7,1.8,0.7,3.3h-3.7c0,0.6,0.1,1,0.4,1.3c0.2,0.3,0.5,0.5,0.9,0.5c0.2,0,0.4-0.1,0.6-0.2
	C156.6,109.1,156.8,108.9,156.8,108.5L156.8,108.5z M156.9,106.6c0-0.6-0.1-1-0.3-1.3c-0.2-0.3-0.5-0.4-0.8-0.4
	c-0.3,0-0.6,0.2-0.8,0.5c-0.2,0.3-0.3,0.7-0.3,1.2H156.9L156.9,106.6z M169.3,110.8h-1.7l-0.7-2.3h-3.1l-0.6,2.3h-1.7l3-10h1.7
	L169.3,110.8L169.3,110.8z M166.4,106.8l-1.1-3.7l-1.1,3.7H166.4L166.4,106.8z M169.4,103.5h0.8V103c0-0.6,0.1-1.1,0.2-1.4
	c0.1-0.3,0.3-0.5,0.6-0.7c0.3-0.2,0.6-0.3,1-0.3c0.4,0,0.8,0.1,1.2,0.2l-0.2,1.3c-0.2-0.1-0.5-0.1-0.7-0.1c-0.2,0-0.4,0.1-0.5,0.2
	c-0.1,0.1-0.1,0.4-0.1,0.7v0.5h1.1v1.5h-1.1v5.8h-1.5v-5.8h-0.8V103.5L169.4,103.5z M173.1,103.5v1.5h0.8v5.8h1.5v-5.8h1.1v-1.5
	h-1.1V103c0-0.4,0-0.6,0.1-0.7c0.1-0.1,0.2-0.2,0.5-0.2c0.2,0,0.4,0,0.7,0.1l0.2-1.3c-0.4-0.2-0.8-0.2-1.2-0.2c-0.4,0-0.8,0.1-1,0.3
	c-0.3,0.2-0.5,0.4-0.6,0.7c-0.1,0.3-0.2,0.8-0.2,1.4v0.5H173.1L173.1,103.5z M177,107.1c0-0.6,0.1-1.3,0.4-1.9
	c0.2-0.6,0.6-1.1,1-1.4c0.4-0.3,0.9-0.5,1.5-0.5c0.9,0,1.6,0.4,2.1,1.1c0.5,0.7,0.8,1.6,0.8,2.7c0,1.1-0.3,2-0.8,2.7
	c-0.6,0.7-1.2,1.1-2.1,1.1c-0.5,0-1-0.1-1.5-0.5c-0.5-0.3-0.8-0.7-1.1-1.3C177.1,108.6,177,107.9,177,107.1L177,107.1z M178.5,107.2
	c0,0.7,0.1,1.3,0.4,1.7c0.3,0.4,0.6,0.6,1,0.6c0.4,0,0.7-0.2,1-0.6c0.3-0.4,0.4-0.9,0.4-1.7c0-0.7-0.1-1.3-0.4-1.6
	c-0.3-0.4-0.6-0.6-1-0.6c-0.4,0-0.7,0.2-1,0.6C178.7,105.9,178.5,106.5,178.5,107.2L178.5,107.2z M185.4,110.8h-1.5v-7.3h1.4v1
	c0.2-0.5,0.5-0.8,0.6-1c0.2-0.2,0.4-0.2,0.6-0.2c0.3,0,0.7,0.1,1,0.4l-0.5,1.7c-0.3-0.2-0.5-0.3-0.7-0.3c-0.2,0-0.4,0.1-0.5,0.2
	c-0.1,0.1-0.3,0.4-0.3,0.8c-0.1,0.4-0.1,1.2-0.1,2.4V110.8L185.4,110.8z M193.4,110.8H192v-1.1c-0.2,0.4-0.5,0.7-0.8,0.9
	c-0.3,0.2-0.6,0.3-0.9,0.3c-0.6,0-1.2-0.3-1.7-1c-0.5-0.7-0.7-1.6-0.7-2.8c0-1.2,0.2-2.2,0.7-2.8c0.4-0.6,1-1,1.7-1
	c0.6,0,1.2,0.3,1.6,1v-3.6h1.5V110.8L193.4,110.8z M189.4,107c0,0.8,0.1,1.3,0.3,1.7c0.2,0.5,0.6,0.8,1,0.8c0.3,0,0.6-0.2,0.9-0.6
	c0.2-0.4,0.4-0.9,0.4-1.7c0-0.8-0.1-1.4-0.3-1.8c-0.2-0.4-0.5-0.6-0.9-0.6c-0.4,0-0.6,0.2-0.9,0.5
	C189.5,105.8,189.4,106.3,189.4,107L189.4,107z M196,105.8l-1.4-0.3c0.2-0.7,0.4-1.2,0.8-1.6c0.4-0.3,0.9-0.5,1.7-0.5
	c0.7,0,1.2,0.1,1.5,0.3c0.3,0.2,0.6,0.5,0.7,0.8c0.1,0.3,0.2,0.9,0.2,1.7l0,2.2c0,0.6,0,1.1,0.1,1.4c0,0.3,0.1,0.6,0.3,1h-1.5
	c0-0.1-0.1-0.3-0.1-0.6c0-0.1,0-0.2-0.1-0.2c-0.3,0.3-0.5,0.6-0.8,0.7c-0.3,0.2-0.6,0.2-0.9,0.2c-0.6,0-1-0.2-1.4-0.6
	c-0.3-0.4-0.5-0.9-0.5-1.5c0-0.4,0.1-0.8,0.2-1.1c0.2-0.3,0.4-0.6,0.6-0.7c0.3-0.2,0.7-0.3,1.2-0.4c0.7-0.2,1.2-0.3,1.4-0.5v-0.2
	c0-0.4-0.1-0.6-0.2-0.8c-0.1-0.2-0.4-0.2-0.8-0.2c-0.3,0-0.5,0.1-0.6,0.2C196.2,105.2,196.1,105.4,196,105.8L196,105.8z M198,107.3
	c-0.2,0.1-0.5,0.2-0.9,0.3c-0.4,0.1-0.7,0.2-0.8,0.3c-0.2,0.2-0.3,0.4-0.3,0.7c0,0.3,0.1,0.5,0.2,0.7c0.2,0.2,0.4,0.3,0.6,0.3
	c0.3,0,0.5-0.1,0.8-0.3c0.2-0.2,0.3-0.4,0.4-0.6c0-0.2,0.1-0.5,0.1-0.9V107.3L198,107.3z M200.8,110.8v-10h1.5v3.6
	c0.5-0.7,1-1,1.6-1c0.7,0,1.3,0.3,1.7,1c0.4,0.6,0.7,1.6,0.7,2.8c0,1.2-0.2,2.2-0.7,2.9c-0.5,0.7-1,1-1.7,1c-0.3,0-0.6-0.1-1-0.3
	c-0.3-0.2-0.6-0.5-0.8-0.9v1.1H200.8L200.8,110.8z M202.3,107c0,0.8,0.1,1.3,0.3,1.7c0.3,0.5,0.6,0.8,1,0.8c0.3,0,0.6-0.2,0.8-0.5
	c0.2-0.4,0.3-0.9,0.3-1.7c0-0.8-0.1-1.4-0.4-1.8c-0.2-0.4-0.5-0.6-0.9-0.6c-0.4,0-0.7,0.2-0.9,0.5
	C202.4,105.7,202.3,106.3,202.3,107L202.3,107z M207.6,102.6v-1.8h1.5v1.8H207.6L207.6,102.6z M207.6,110.8v-7.3h1.5v7.3H207.6
	L207.6,110.8z M210.6,110.8v-10h1.5v10H210.6L210.6,110.8z M213.6,102.6v-1.8h1.5v1.8H213.6L213.6,102.6z M213.6,110.8v-7.3h1.5v7.3
	H213.6L213.6,110.8z M219.2,103.5v1.5h-1v2.9c0,0.6,0,0.9,0,1c0,0.1,0.1,0.2,0.1,0.2c0.1,0.1,0.2,0.1,0.3,0.1c0.1,0,0.3-0.1,0.6-0.2
	l0.1,1.5c-0.3,0.2-0.7,0.3-1.2,0.3c-0.3,0-0.5-0.1-0.7-0.2c-0.2-0.1-0.4-0.3-0.5-0.5c-0.1-0.2-0.2-0.4-0.2-0.7c0-0.2,0-0.7,0-1.4
	v-3.2H216v-1.5h0.7v-1.4l1.5-1.1v2.6H219.2L219.2,103.5z M219.5,103.5h1.6l1.3,5.2l1.3-5.2h1.5l-2,7l-0.4,1.3
	c-0.1,0.4-0.3,0.7-0.4,1c-0.1,0.2-0.3,0.4-0.4,0.5c-0.2,0.1-0.3,0.2-0.6,0.3c-0.2,0.1-0.5,0.1-0.8,0.1c-0.3,0-0.6,0-0.8-0.1
	l-0.1-1.5c0.2,0.1,0.4,0.1,0.6,0.1c0.3,0,0.6-0.1,0.8-0.4c0.2-0.3,0.3-0.6,0.4-1L219.5,103.5L219.5,103.5z M229.3,110.8v-10h2.4
	l1.4,6.8l1.4-6.8h2.4v10h-1.5v-7.9l-1.5,7.9h-1.5l-1.5-7.9v7.9H229.3L229.3,110.8z M241.6,108.5l1.5,0.3c-0.2,0.7-0.5,1.2-0.9,1.6
	c-0.4,0.4-0.9,0.6-1.5,0.6c-1,0-1.7-0.4-2.2-1.2c-0.4-0.7-0.6-1.5-0.6-2.5c0-1.2,0.2-2.1,0.7-2.8c0.5-0.7,1.1-1,1.9-1
	c0.8,0,1.5,0.4,2,1.1c0.5,0.7,0.7,1.8,0.7,3.3h-3.7c0,0.6,0.1,1,0.4,1.3c0.2,0.3,0.5,0.5,0.9,0.5c0.2,0,0.4-0.1,0.6-0.2
	C241.4,109.1,241.6,108.9,241.6,108.5L241.6,108.5z M241.7,106.6c0-0.6-0.1-1-0.3-1.3c-0.2-0.3-0.5-0.4-0.8-0.4
	c-0.3,0-0.6,0.2-0.8,0.5c-0.2,0.3-0.3,0.7-0.3,1.2H241.7L241.7,106.6z M247.7,108.5l1.5,0.3c-0.2,0.7-0.5,1.2-0.9,1.6
	c-0.4,0.4-0.9,0.6-1.5,0.6c-1,0-1.7-0.4-2.2-1.2c-0.4-0.7-0.6-1.5-0.6-2.5c0-1.2,0.2-2.1,0.7-2.8c0.5-0.7,1.1-1,1.9-1
	c0.8,0,1.5,0.4,2,1.1c0.5,0.7,0.7,1.8,0.7,3.3h-3.7c0,0.6,0.1,1,0.4,1.3c0.2,0.3,0.5,0.5,0.9,0.5c0.2,0,0.4-0.1,0.6-0.2
	C247.5,109.1,247.6,108.9,247.7,108.5L247.7,108.5z M247.8,106.6c0-0.6-0.1-1-0.3-1.3c-0.2-0.3-0.5-0.4-0.8-0.4
	c-0.3,0-0.6,0.2-0.8,0.5c-0.2,0.3-0.3,0.7-0.3,1.2H247.8L247.8,106.6z M253,103.5v1.5h-1v2.9c0,0.6,0,0.9,0,1c0,0.1,0.1,0.2,0.1,0.2
	c0.1,0.1,0.2,0.1,0.3,0.1c0.1,0,0.3-0.1,0.6-0.2l0.1,1.5c-0.3,0.2-0.7,0.3-1.2,0.3c-0.3,0-0.5-0.1-0.7-0.2c-0.2-0.1-0.4-0.3-0.5-0.5
	c-0.1-0.2-0.2-0.4-0.2-0.7c0-0.2,0-0.7,0-1.4v-3.2h-0.7v-1.5h0.7v-1.4l1.5-1.1v2.6H253L253,103.5z M253.6,108.7l1.5-0.3
	c0.1,0.4,0.2,0.7,0.4,0.9c0.2,0.2,0.5,0.3,0.8,0.3c0.4,0,0.7-0.1,0.9-0.3c0.1-0.1,0.2-0.3,0.2-0.5c0-0.1,0-0.3-0.1-0.4
	c-0.1-0.1-0.2-0.2-0.5-0.3c-1.2-0.3-2-0.7-2.3-0.9c-0.4-0.4-0.7-0.9-0.7-1.6c0-0.6,0.2-1.2,0.6-1.6c0.4-0.4,1-0.6,1.8-0.6
	c0.8,0,1.3,0.2,1.7,0.5c0.4,0.3,0.6,0.8,0.8,1.4l-1.4,0.3c-0.1-0.3-0.2-0.5-0.3-0.6c-0.2-0.2-0.4-0.2-0.7-0.2
	c-0.4,0-0.7,0.1-0.8,0.2c-0.1,0.1-0.2,0.2-0.2,0.4c0,0.1,0,0.3,0.1,0.3c0.1,0.1,0.6,0.3,1.4,0.5c0.8,0.2,1.3,0.5,1.7,0.9
	c0.3,0.3,0.5,0.8,0.5,1.4c0,0.7-0.2,1.2-0.6,1.7c-0.4,0.5-1.1,0.7-1.9,0.7c-0.8,0-1.4-0.2-1.8-0.6C254,110,253.7,109.4,253.6,108.7
	L253.6,108.7z M263.2,110.8v-10h2.5c1,0,1.6,0.1,1.9,0.2c0.4,0.1,0.8,0.5,1.1,1c0.3,0.5,0.5,1.2,0.5,2c0,0.6-0.1,1.1-0.3,1.6
	c-0.2,0.4-0.4,0.8-0.7,1c-0.3,0.2-0.5,0.4-0.8,0.5c-0.4,0.1-0.9,0.1-1.6,0.1h-1v3.8H263.2L263.2,110.8z M264.7,102.5v2.8h0.9
	c0.6,0,1-0.1,1.2-0.2c0.2-0.1,0.4-0.3,0.5-0.5c0.1-0.2,0.2-0.5,0.2-0.8c0-0.4-0.1-0.7-0.3-0.9c-0.2-0.2-0.4-0.4-0.6-0.4
	c-0.2,0-0.6-0.1-1.1-0.1H264.7L264.7,102.5z M271.8,110.8h-1.5v-7.3h1.4v1c0.2-0.5,0.5-0.8,0.6-1c0.2-0.2,0.4-0.2,0.6-0.2
	c0.3,0,0.7,0.1,1,0.4l-0.5,1.7c-0.3-0.2-0.5-0.3-0.7-0.3c-0.2,0-0.4,0.1-0.5,0.2c-0.1,0.1-0.3,0.4-0.3,0.8c-0.1,0.4-0.1,1.2-0.1,2.4
	V110.8L271.8,110.8z M274.3,107.1c0-0.6,0.1-1.3,0.4-1.9c0.2-0.6,0.6-1.1,1-1.4c0.4-0.3,0.9-0.5,1.5-0.5c0.9,0,1.6,0.4,2.1,1.1
	c0.5,0.7,0.8,1.6,0.8,2.7c0,1.1-0.3,2-0.8,2.7c-0.6,0.7-1.2,1.1-2.1,1.1c-0.5,0-1-0.1-1.5-0.5c-0.5-0.3-0.8-0.7-1.1-1.3
	C274.4,108.6,274.3,107.9,274.3,107.1L274.3,107.1z M275.8,107.2c0,0.7,0.1,1.3,0.4,1.7c0.3,0.4,0.6,0.6,1,0.6c0.4,0,0.7-0.2,1-0.6
	c0.3-0.4,0.4-0.9,0.4-1.7c0-0.7-0.1-1.3-0.4-1.6c-0.3-0.4-0.6-0.6-1-0.6c-0.4,0-0.7,0.2-1,0.6C276,105.9,275.8,106.5,275.8,107.2
	L275.8,107.2z M280.6,103.5h0.8V103c0-0.6,0.1-1.1,0.2-1.4c0.1-0.3,0.3-0.5,0.6-0.7c0.3-0.2,0.6-0.3,1-0.3c0.4,0,0.8,0.1,1.2,0.2
	l-0.2,1.3c-0.2-0.1-0.5-0.1-0.7-0.1c-0.2,0-0.4,0.1-0.5,0.2c-0.1,0.1-0.1,0.4-0.1,0.7v0.5h1.1v1.5H283v5.8h-1.5v-5.8h-0.8V103.5
	L280.6,103.5z M288.2,108.5l1.5,0.3c-0.2,0.7-0.5,1.2-0.9,1.6c-0.4,0.4-0.9,0.6-1.5,0.6c-1,0-1.7-0.4-2.2-1.2
	c-0.4-0.7-0.6-1.5-0.6-2.5c0-1.2,0.2-2.1,0.7-2.8c0.5-0.7,1.1-1,1.9-1c0.8,0,1.5,0.4,2,1.1c0.5,0.7,0.7,1.8,0.7,3.3H286
	c0,0.6,0.1,1,0.4,1.3c0.2,0.3,0.5,0.5,0.9,0.5c0.2,0,0.4-0.1,0.6-0.2C288,109.1,288.1,108.9,288.2,108.5L288.2,108.5z M288.3,106.6
	c0-0.6-0.1-1-0.3-1.3c-0.2-0.3-0.5-0.4-0.8-0.4c-0.3,0-0.6,0.2-0.8,0.5c-0.2,0.3-0.3,0.7-0.3,1.2H288.3L288.3,106.6z M290.4,108.7
	l1.5-0.3c0.1,0.4,0.2,0.7,0.4,0.9c0.2,0.2,0.5,0.3,0.8,0.3c0.4,0,0.7-0.1,0.9-0.3c0.1-0.1,0.2-0.3,0.2-0.5c0-0.1,0-0.3-0.1-0.4
	c-0.1-0.1-0.2-0.2-0.5-0.3c-1.2-0.3-2-0.7-2.3-0.9c-0.4-0.4-0.7-0.9-0.7-1.6c0-0.6,0.2-1.2,0.6-1.6c0.4-0.4,1-0.6,1.8-0.6
	c0.8,0,1.3,0.2,1.7,0.5c0.4,0.3,0.6,0.8,0.8,1.4l-1.4,0.3c-0.1-0.3-0.2-0.5-0.3-0.6c-0.2-0.2-0.4-0.2-0.7-0.2
	c-0.4,0-0.7,0.1-0.8,0.2c-0.1,0.1-0.2,0.2-0.2,0.4c0,0.1,0,0.3,0.1,0.3c0.1,0.1,0.6,0.3,1.4,0.5c0.8,0.2,1.3,0.5,1.7,0.9
	c0.3,0.3,0.5,0.8,0.5,1.4c0,0.7-0.2,1.2-0.6,1.7c-0.4,0.5-1.1,0.7-1.9,0.7c-0.8,0-1.4-0.2-1.8-0.6
	C290.9,110,290.6,109.4,290.4,108.7L290.4,108.7z M296.5,108.7l1.5-0.3c0.1,0.4,0.2,0.7,0.4,0.9c0.2,0.2,0.5,0.3,0.8,0.3
	c0.4,0,0.7-0.1,0.9-0.3c0.1-0.1,0.2-0.3,0.2-0.5c0-0.1,0-0.3-0.1-0.4c-0.1-0.1-0.2-0.2-0.5-0.3c-1.2-0.3-2-0.7-2.3-0.9
	c-0.4-0.4-0.7-0.9-0.7-1.6c0-0.6,0.2-1.2,0.6-1.6c0.4-0.4,1-0.6,1.8-0.6c0.8,0,1.3,0.2,1.7,0.5c0.4,0.3,0.6,0.8,0.8,1.4l-1.4,0.3
	c-0.1-0.3-0.2-0.5-0.3-0.6c-0.2-0.2-0.4-0.2-0.7-0.2c-0.4,0-0.7,0.1-0.8,0.2c-0.1,0.1-0.2,0.2-0.2,0.4c0,0.1,0,0.3,0.1,0.3
	c0.1,0.1,0.6,0.3,1.4,0.5c0.8,0.2,1.3,0.5,1.7,0.9c0.3,0.3,0.5,0.8,0.5,1.4c0,0.7-0.2,1.2-0.6,1.7c-0.4,0.5-1.1,0.7-1.9,0.7
	c-0.8,0-1.4-0.2-1.8-0.6C296.9,110,296.6,109.4,296.5,108.7L296.5,108.7z M303.1,102.6v-1.8h1.5v1.8H303.1L303.1,102.6z
	 M303.1,110.8v-7.3h1.5v7.3H303.1L303.1,110.8z M305.7,107.1c0-0.6,0.1-1.3,0.4-1.9c0.2-0.6,0.6-1.1,1-1.4c0.4-0.3,0.9-0.5,1.5-0.5
	c0.9,0,1.6,0.4,2.1,1.1c0.5,0.7,0.8,1.6,0.8,2.7c0,1.1-0.3,2-0.8,2.7c-0.6,0.7-1.2,1.1-2.1,1.1c-0.5,0-1-0.1-1.5-0.5
	c-0.5-0.3-0.8-0.7-1.1-1.3C305.9,108.6,305.7,107.9,305.7,107.1L305.7,107.1z M307.3,107.2c0,0.7,0.1,1.3,0.4,1.7
	c0.3,0.4,0.6,0.6,1,0.6c0.4,0,0.7-0.2,1-0.6c0.3-0.4,0.4-0.9,0.4-1.7c0-0.7-0.1-1.3-0.4-1.6c-0.3-0.4-0.6-0.6-1-0.6
	c-0.4,0-0.7,0.2-1,0.6C307.4,105.9,307.3,106.5,307.3,107.2L307.3,107.2z M317.8,110.8h-1.5v-3.7c0-0.8,0-1.3-0.1-1.5
	c-0.1-0.2-0.2-0.4-0.3-0.5c-0.1-0.1-0.3-0.2-0.5-0.2c-0.3,0-0.5,0.1-0.7,0.3c-0.2,0.2-0.3,0.4-0.4,0.7c-0.1,0.3-0.1,0.9-0.1,1.7v3.3
	h-1.5v-7.3h1.4v1.1c0.5-0.8,1.1-1.2,1.9-1.2c0.3,0,0.6,0.1,0.9,0.2c0.3,0.2,0.5,0.3,0.6,0.6c0.1,0.2,0.2,0.5,0.3,0.8
	c0.1,0.3,0.1,0.7,0.1,1.3V110.8L317.8,110.8z M320.5,105.8l-1.4-0.3c0.2-0.7,0.4-1.2,0.8-1.6c0.4-0.3,0.9-0.5,1.7-0.5
	c0.7,0,1.2,0.1,1.5,0.3c0.3,0.2,0.6,0.5,0.7,0.8c0.1,0.3,0.2,0.9,0.2,1.7l0,2.2c0,0.6,0,1.1,0.1,1.4c0,0.3,0.1,0.6,0.3,1h-1.5
	c0-0.1-0.1-0.3-0.1-0.6c0-0.1,0-0.2-0.1-0.2c-0.3,0.3-0.5,0.6-0.8,0.7c-0.3,0.2-0.6,0.2-0.9,0.2c-0.6,0-1-0.2-1.4-0.6
	c-0.3-0.4-0.5-0.9-0.5-1.5c0-0.4,0.1-0.8,0.2-1.1c0.2-0.3,0.4-0.6,0.6-0.7c0.3-0.2,0.7-0.3,1.2-0.4c0.7-0.2,1.2-0.3,1.4-0.5v-0.2
	c0-0.4-0.1-0.6-0.2-0.8c-0.1-0.2-0.4-0.2-0.8-0.2c-0.3,0-0.5,0.1-0.6,0.2C320.7,105.2,320.6,105.4,320.5,105.8L320.5,105.8z
	 M322.5,107.3c-0.2,0.1-0.5,0.2-0.9,0.3c-0.4,0.1-0.7,0.2-0.8,0.3c-0.2,0.2-0.3,0.4-0.3,0.7c0,0.3,0.1,0.5,0.2,0.7
	c0.2,0.2,0.4,0.3,0.6,0.3c0.3,0,0.5-0.1,0.8-0.3c0.2-0.2,0.3-0.4,0.4-0.6c0-0.2,0.1-0.5,0.1-0.9V107.3L322.5,107.3z M325.4,110.8
	v-10h1.5v10H325.4L325.4,110.8z M328.4,102.6v-1.8h1.5v1.8H328.4L328.4,102.6z M328.4,110.8v-7.3h1.5v7.3H328.4L328.4,110.8z
	 M330.9,108.7l1.5-0.3c0.1,0.4,0.2,0.7,0.4,0.9c0.2,0.2,0.5,0.3,0.8,0.3c0.4,0,0.7-0.1,0.9-0.3c0.1-0.1,0.2-0.3,0.2-0.5
	c0-0.1,0-0.3-0.1-0.4c-0.1-0.1-0.2-0.2-0.5-0.3c-1.2-0.3-2-0.7-2.3-0.9c-0.4-0.4-0.7-0.9-0.7-1.6c0-0.6,0.2-1.2,0.6-1.6
	c0.4-0.4,1-0.6,1.8-0.6c0.8,0,1.3,0.2,1.7,0.5c0.4,0.3,0.6,0.8,0.8,1.4l-1.4,0.3c-0.1-0.3-0.2-0.5-0.3-0.6c-0.2-0.2-0.4-0.2-0.7-0.2
	c-0.4,0-0.7,0.1-0.8,0.2c-0.1,0.1-0.2,0.2-0.2,0.4c0,0.1,0,0.3,0.1,0.3c0.1,0.1,0.6,0.3,1.4,0.5c0.8,0.2,1.3,0.5,1.7,0.9
	c0.3,0.3,0.5,0.8,0.5,1.4c0,0.7-0.2,1.2-0.6,1.7c-0.4,0.5-1.1,0.7-1.9,0.7c-0.8,0-1.4-0.2-1.8-0.6
	C331.4,110,331.1,109.4,330.9,108.7L330.9,108.7z M337.4,103.5h1.4v1c0.5-0.8,1.1-1.2,1.8-1.2c0.4,0,0.7,0.1,0.9,0.3
	c0.3,0.2,0.5,0.5,0.7,0.9c0.2-0.4,0.5-0.7,0.8-0.9c0.3-0.2,0.6-0.3,0.9-0.3c0.4,0,0.8,0.1,1.1,0.3c0.3,0.2,0.5,0.5,0.6,1
	c0.1,0.3,0.2,0.8,0.2,1.5v4.6h-1.5v-4.2c0-0.7-0.1-1.2-0.2-1.4c-0.1-0.3-0.3-0.4-0.6-0.4c-0.2,0-0.4,0.1-0.6,0.2
	c-0.2,0.2-0.3,0.4-0.4,0.7c-0.1,0.3-0.1,0.8-0.1,1.5v3.5h-1.5v-4c0-0.7,0-1.2-0.1-1.4c-0.1-0.2-0.1-0.4-0.2-0.5
	c-0.1-0.1-0.3-0.2-0.5-0.2c-0.2,0-0.4,0.1-0.6,0.2c-0.2,0.2-0.3,0.4-0.4,0.7c-0.1,0.3-0.1,0.8-0.1,1.5v3.5h-1.5V103.5z"/>
</svg>
